<svg width="25" height="26" viewBox="0 0 25 26" fill="none" xmlns="http://www.w3.org/2000/svg">
<path d="M4.15949 21.4302C3.58765 21.4302 3.0983 21.2268 2.69142 20.8199C2.28455 20.413 2.08077 19.9233 2.08008 19.3508V6.87433C2.08008 6.30249 2.28386 5.81314 2.69142 5.40627C3.09899 4.9994 3.58834 4.79562 4.15949 4.79492H20.7948C21.3666 4.79492 21.8563 4.9987 22.2639 5.40627C22.6714 5.81383 22.8749 6.30319 22.8742 6.87433V19.3508C22.8742 19.9226 22.6707 20.4123 22.2639 20.8199C21.857 21.2275 21.3673 21.4309 20.7948 21.4302H4.15949ZM20.7948 8.95374L13.023 13.8144C12.9363 13.8663 12.8455 13.9055 12.7506 13.9318C12.6556 13.9582 12.5645 13.971 12.4771 13.9703C12.3898 13.9696 12.299 13.9568 12.2047 13.9318C12.1105 13.9069 12.0193 13.8677 11.9313 13.8144L4.15949 8.95374V19.3508H20.7948V8.95374ZM12.4771 12.0729L20.7948 6.87433H4.15949L12.4771 12.0729ZM4.15949 9.21367V7.6801V7.7061V7.69362V9.21367Z" fill="#BAC1C5"/>
</svg>
