<svg width="25" height="26" viewBox="0 0 25 26" fill="none" xmlns="http://www.w3.org/2000/svg">
<path d="M8.31824 3.6709C8.83809 3.6709 10.9175 8.34957 10.9175 8.86942C10.9175 9.90913 9.35794 10.9488 8.83809 11.9885C8.31824 13.0282 9.35794 14.0679 10.3976 15.1076C10.8031 15.5131 12.4771 17.1871 13.5168 16.6672C14.5565 16.1474 15.5962 14.5878 16.6359 14.5878C17.1557 14.5878 21.8344 16.6672 21.8344 17.1871C21.8344 19.2665 20.2748 20.826 18.7153 21.3459C17.1557 21.8657 16.116 21.8657 14.0366 21.3459C11.9572 20.826 10.3976 20.3062 7.79839 17.7069C5.19913 15.1076 4.67927 13.5481 4.15942 11.4687C3.63957 9.38927 3.63957 8.34957 4.15942 6.79001C4.67927 5.23046 6.23883 3.6709 8.31824 3.6709Z" stroke="#BAC1C5" stroke-width="2" stroke-linecap="round" stroke-linejoin="round"/>
</svg>
